<svg width="53" height="52" viewBox="0 0 53 52" fill="none" xmlns="http://www.w3.org/2000/svg">
<g id="grill_823317" clip-path="url(#clip0_122_914)">
<g id="Group">
<g id="Group_2">
<path id="Vector" d="M30.4161 16.0403C30.2487 15.873 30.1566 15.6505 30.1566 15.4138C30.1566 15.1771 30.2487 14.9546 30.4161 14.7873C30.709 14.4944 30.709 14.0195 30.4161 13.7266C30.1231 13.4337 29.6483 13.4338 29.3554 13.7265C28.9047 14.1772 28.6565 14.7764 28.6565 15.4138C28.6565 16.0512 28.9047 16.6504 29.3553 17.101C29.7008 17.4465 29.7008 18.0087 29.3554 18.3542C29.0626 18.647 29.0626 19.1219 29.3555 19.4148C29.5019 19.5612 29.6939 19.6345 29.8858 19.6345C30.0777 19.6345 30.2697 19.5613 30.4161 19.4148C31.3465 18.4845 31.3465 16.9707 30.4161 16.0403Z" fill="#8B3828"/>
</g>
</g>
<g id="Group_3">
<g id="Group_4">
<path id="Vector_2" d="M37.8008 16.0403C37.6335 15.8729 37.5413 15.6504 37.5413 15.4137C37.5413 15.177 37.6335 14.9545 37.8008 14.7871C38.0937 14.4942 38.0937 14.0193 37.8008 13.7264C37.5079 13.4335 37.033 13.4335 36.7402 13.7264C35.8099 14.6567 35.8099 16.1705 36.7402 17.1008C36.9075 17.2683 36.9997 17.4908 36.9997 17.7275C36.9997 17.9642 36.9075 18.1867 36.7401 18.354C36.4472 18.6469 36.4472 19.1218 36.7401 19.4147C36.8866 19.5611 37.0785 19.6344 37.2705 19.6344C37.4624 19.6344 37.6544 19.5612 37.8008 19.4148C38.2515 18.9641 38.4997 18.3649 38.4997 17.7276C38.4997 17.0903 38.2514 16.491 37.8008 16.0403Z" fill="#8B3828"/>
</g>
</g>
<g id="Group_5">
<g id="Group_6">
<path id="Vector_3" d="M42.0998 24.2527H41.1199C41.126 24.1946 41.1294 24.1357 41.1294 24.076V22.6964C41.1294 21.7719 40.3772 21.0197 39.4527 21.0197H38.3102C37.896 21.0197 37.5602 21.3555 37.5602 21.7697C37.5602 22.1839 37.896 22.5197 38.3102 22.5197H39.4527C39.5501 22.5197 39.6294 22.5989 39.6294 22.6964V24.076C39.6294 24.1734 39.5501 24.2527 39.4527 24.2527H25.4023C25.3049 24.2527 25.2256 24.1735 25.2256 24.076V22.6964C25.2256 22.599 25.3048 22.5197 25.4023 22.5197H34.7708C35.185 22.5197 35.5208 22.1839 35.5208 21.7697C35.5208 21.3555 35.185 21.0197 34.7708 21.0197H25.4023C24.4778 21.0197 23.7257 21.7718 23.7257 22.6964V24.076C23.7257 24.1357 23.7291 24.1946 23.7352 24.2527H17.2504C17.2037 24.1023 17.143 23.9581 17.0705 23.821L34.6424 6.24903C35.2806 5.61083 35.2806 4.57253 34.6424 3.93433L33.8363 3.12824C32.0126 1.30444 29.5877 0.300049 27.0084 0.300049C24.4291 0.300049 22.0043 1.30444 20.1805 3.12834L19.2308 4.07803L18.6754 3.52264C17.9804 2.82764 16.894 2.78314 16.2534 3.42364L13.1602 6.51682C12.5197 7.15732 12.5641 8.24382 13.2592 8.93882L13.8146 9.49421L12.8648 10.444C9.19421 14.1147 9.10401 20.0285 12.5907 23.8116C12.4007 24.167 12.2927 24.5724 12.2927 25.0027C12.2927 26.1429 13.0495 27.1096 14.0871 27.4274C14.0924 27.5576 14.1 27.6873 14.1105 27.8161H11.3599C10.2033 27.8161 9.26221 28.7571 9.26221 29.9138C9.26221 31.0704 10.2032 32.0114 11.3599 32.0114H15.4657C16.715 34.0771 18.716 35.6396 21.087 36.3165L18.7949 45.1913C18.6913 45.5924 18.9325 46.0015 19.3335 46.105C19.3964 46.1213 19.4595 46.129 19.5216 46.129C19.8553 46.129 20.1599 45.9045 20.2472 45.5664L22.5593 36.6139C22.9446 36.6609 23.3367 36.6855 23.7345 36.6855H24.2241L20.9434 49.3884C20.8504 49.7485 20.5264 49.9999 20.1554 49.9999C20.0869 49.9999 20.018 49.9911 19.9506 49.9736C19.7399 49.9192 19.5629 49.7859 19.4524 49.5984C19.3419 49.4109 19.3109 49.1916 19.3654 48.9808L19.66 47.8401C19.7636 47.439 19.5224 47.0299 19.1214 46.9264C18.72 46.8228 18.3112 47.0639 18.2077 47.465L17.9131 48.6057C17.7585 49.2044 17.8462 49.8275 18.1603 50.3602C18.4743 50.8928 18.9769 51.2713 19.5754 51.4259C19.7652 51.475 19.9604 51.4999 20.1555 51.4999C21.2105 51.4999 22.1318 50.7859 22.3959 49.7636L23.5027 45.4782H34.3222L34.657 46.7704C34.4165 47.2211 34.2796 47.7352 34.2796 48.2808C34.2796 50.0559 35.7238 51.5 37.4989 51.5C39.2741 51.5 40.7183 50.0559 40.7183 48.2808C40.7183 47.0921 40.0702 46.0525 39.1093 45.4949L36.7314 36.3158C39.2248 35.603 41.3086 33.9105 42.5389 31.6834C42.5674 31.6416 42.5916 31.5968 42.6113 31.5496C43.3292 30.2002 43.7368 28.6617 43.7368 27.0295V25.8895C43.7366 24.9869 43.0023 24.2527 42.0998 24.2527ZM14.2208 7.57742L17.3139 4.48433C17.3449 4.45353 17.4904 4.45893 17.6147 4.58323L18.1701 5.13863L14.8752 8.43352L14.3198 7.87812C14.225 7.78332 14.2087 7.68902 14.206 7.65292C14.2035 7.61852 14.2093 7.58892 14.2208 7.57742ZM13.9254 11.5046L21.2411 4.18893C22.7817 2.64844 24.8298 1.80004 27.0084 1.80004C29.187 1.80004 31.2352 2.64844 32.7757 4.18893L33.5818 4.99503C33.6351 5.04833 33.6351 5.13513 33.5818 5.18843L16.0099 22.7604C15.6568 22.5735 15.2547 22.4672 14.8282 22.4672C14.4053 22.4672 14.0067 22.5718 13.6558 22.7556C10.7486 19.5586 10.8381 14.5919 13.9254 11.5046ZM11.3598 30.5114C11.0303 30.5114 10.7621 30.2433 10.7621 29.9138C10.7621 29.5843 11.0302 29.3161 11.3598 29.3161H14.3525C14.4523 29.7253 14.5779 30.1244 14.7281 30.5114H11.3598ZM14.8282 26.0381C14.2572 26.0381 13.7927 25.5735 13.7927 25.0027C13.7927 24.4317 14.2573 23.9672 14.8282 23.9672C15.3992 23.9672 15.8637 24.4318 15.8637 25.0027C15.8638 25.5736 15.3992 26.0381 14.8282 26.0381ZM23.89 43.978L24.3109 42.3481H33.5113L33.9335 43.978H23.89ZM24.6983 40.8481L25.7734 36.6855H32.0444L33.1228 40.8481H24.6983ZM39.2182 48.2806C39.2182 49.2286 38.4469 49.9999 37.4988 49.9999C36.5508 49.9999 35.7795 49.2286 35.7795 48.2806C35.7795 47.3325 36.5508 46.5612 37.4988 46.5612C38.4469 46.5612 39.2182 47.3325 39.2182 48.2806ZM37.4476 45.0625C36.8759 45.0715 36.3401 45.23 35.8775 45.501L33.5938 36.6856H34.0803C34.4792 36.6856 34.8725 36.6608 35.2589 36.6136L37.4476 45.0625ZM34.0803 35.1855H23.7345C21.1122 35.1855 18.7765 33.9402 17.2835 32.0114H40.5314C39.0383 33.9402 36.7027 35.1855 34.0803 35.1855ZM41.4541 30.5114H16.3607C15.9126 29.5663 15.6405 28.5224 15.5881 27.4216C16.3794 27.1725 17.0045 26.5452 17.2504 25.7525H42.0998C42.1752 25.7525 42.2365 25.8138 42.2365 25.8892V27.0293C42.2365 28.2744 41.9551 29.4547 41.4541 30.5114Z" fill="#8B3828"/>
</g>
</g>
<g id="Group_7">
<g id="Group_8">
<path id="Vector_4" d="M34.1091 16.0403C33.9418 15.8729 33.8496 15.6504 33.8496 15.4137C33.8496 15.177 33.9418 14.9545 34.1091 14.7871C34.402 14.4942 34.402 14.0193 34.1091 13.7264C33.8162 13.4335 33.3414 13.4335 33.0486 13.7264C32.1183 14.6567 32.1183 16.1705 33.0486 17.1008C33.216 17.2682 33.3082 17.4907 33.3082 17.7274C33.3082 17.9641 33.216 18.1866 33.0486 18.3539C32.7557 18.6469 32.7557 19.1217 33.0485 19.4147C33.195 19.5611 33.3869 19.6344 33.5789 19.6344C33.7708 19.6344 33.9627 19.5612 34.1091 19.4148C34.5598 18.9641 34.808 18.3649 34.808 17.7276C34.808 17.0903 34.5598 16.491 34.1091 16.0403Z" fill="#8B3828"/>
</g>
</g>
</g>
<defs>
<clipPath id="clip0_122_914">
<rect width="51.2" height="51.2" fill="white" transform="translate(0.899902 0.300049)"/>
</clipPath>
</defs>
</svg>
