<svg width="48" height="47" viewBox="0 0 48 47" fill="none" xmlns="http://www.w3.org/2000/svg">
<g id="roller-skate_6312419" clip-path="url(#clip0_122_898)">
<g id="Group">
<path id="Vector" d="M40.9016 36.9845C40.7346 36.9845 40.5675 36.9943 40.4016 37.0117L39.7746 35.9368C39.8968 35.8429 39.9875 35.7085 40.0237 35.5497C40.0474 35.4458 40.6035 32.983 40.6035 30.8879C40.6035 29.6784 40.3881 28.504 40.0606 27.3654H44.9786C45.354 27.3654 45.6583 27.0611 45.6583 26.6858C45.6583 26.3104 45.354 26.0061 44.9786 26.0061H39.6166C39.3581 25.2922 39.0703 24.5935 38.7802 23.9103C38.6334 23.5648 38.2346 23.4036 37.889 23.5502C37.5434 23.6969 37.3822 24.096 37.5289 24.4414C37.7607 24.9874 37.9719 25.5061 38.1624 26.0061H36.8235C36.4481 26.0061 36.1438 26.3104 36.1438 26.6858C36.1438 27.0611 36.4481 27.3654 36.8235 27.3654H38.6384C39.0254 28.5977 39.2441 29.7339 39.2441 30.8879C39.2441 32.2772 38.9669 33.9007 38.8075 34.7188H19.3867C19.0113 34.7188 18.707 35.0232 18.707 35.3985C18.707 35.7739 19.0113 36.0782 19.3867 36.0782H38.2834L41.3876 41.3998C41.5666 41.7066 41.4488 41.9783 41.3899 42.0809C41.331 42.1834 41.1556 42.4221 40.8005 42.4221H31.4278C31.0524 42.4221 30.7481 42.7264 30.7481 43.1018C30.7481 43.4771 31.0524 43.7814 31.4278 43.7814H31.8378C31.2065 44.6258 30.2112 45.1408 29.1204 45.1408C28.0295 45.1408 27.0342 44.6258 26.403 43.7814H28.7091C29.0845 43.7814 29.3888 43.4771 29.3888 43.1018C29.3888 42.7264 29.0845 42.4221 28.7091 42.4221H5.659C5.30393 42.4221 5.12848 42.1834 5.06957 42.0809C5.01067 41.9783 4.89295 41.7066 5.07184 41.3998L8.17611 36.0782H16.6679C17.0433 36.0782 17.3476 35.7739 17.3476 35.3985C17.3476 35.0232 17.0433 34.7188 16.6679 34.7188H7.86798C7.47449 34.1393 6.58084 32.6271 6.58084 30.8488C6.58084 28.8581 7.34073 27.7322 9.12187 27.084L10.1689 26.7029L10.8663 28.619C11.2736 29.7378 11.8976 30.8415 12.5787 31.6468C13.384 32.5991 14.0291 32.8666 14.4997 32.8666C14.6523 32.8666 14.7866 32.8385 14.9019 32.7965C15.3733 32.625 15.9365 32.0738 15.9427 30.4224C15.9459 29.5672 15.7944 28.5858 15.5198 27.6486L16.7666 27.1947C17.1588 28.0891 17.6735 28.9383 18.2257 29.5914C19.0309 30.5437 19.6761 30.8111 20.1468 30.8111C20.2994 30.8111 20.4336 30.783 20.549 30.741C21.0203 30.5695 21.5835 30.0183 21.5897 28.3669C21.593 27.5009 21.4374 26.5056 21.1562 25.5577C22.3219 24.9854 23.2768 24.0584 23.8827 22.8943C23.9416 22.7811 23.9954 22.666 24.0469 22.5501L25.0022 26.1154C25.6608 28.5733 27.7656 29.652 29.6134 29.652C29.6634 29.652 29.7133 29.6512 29.7629 29.6496C31.6452 29.5898 33.7748 28.3826 34.2896 25.8203L35.5301 19.6466C35.816 20.4213 36.1133 21.1449 36.3919 21.8033C36.5017 22.0625 36.7533 22.2183 37.0182 22.2183C37.1065 22.2183 37.1963 22.201 37.2828 22.1644C37.6284 22.018 37.7901 21.6192 37.6437 21.2735C37.0986 19.9859 36.4812 18.4447 36.0345 16.7773L34.6663 11.671H44.9784C45.3537 11.671 45.6581 11.3667 45.6581 10.9913C45.6581 10.616 45.3537 10.3116 44.9784 10.3116H34.3023L33.0029 5.46229C33.6774 4.29087 33.7257 2.82628 33.1061 1.6438C32.5996 0.677198 31.7399 0.100098 30.8063 0.100098C30.3428 0.100098 29.8532 0.168248 29.3512 0.302826L26.4738 1.07377C26.1112 1.17092 25.8961 1.54366 25.9932 1.90625C26.0903 2.26884 26.4633 2.4839 26.8256 2.38693L29.703 1.61598C30.0903 1.51213 30.4616 1.45956 30.8063 1.45956C31.2249 1.45956 31.6346 1.76434 31.902 2.27483C32.2117 2.86579 32.3617 3.84835 31.837 4.76574L21.4359 7.55274L21.0333 6.04999C20.8922 5.52391 20.9646 4.97445 21.237 4.50275C21.5093 4.03105 21.949 3.69365 22.4751 3.55273L23.8259 3.19077C24.1885 3.09362 24.4036 2.72088 24.3065 2.35829C24.2094 1.9957 23.8364 1.78083 23.4741 1.87762C23.4741 1.87762 22.077 2.25326 22.0539 2.25996C21.3475 1.74521 19.8917 0.915723 17.8419 0.915723C16.9131 0.923788 16.0746 1.44751 15.6535 2.28253C15.2382 3.10577 15.3098 4.03739 15.8449 4.77454L16.835 6.13853L17.4967 8.60824C16.7727 8.80227 16.3415 9.54911 16.5354 10.2731L17.0553 12.2129C17.2179 12.8195 17.7685 13.2205 18.3687 13.2205C18.4848 13.2205 18.6028 13.2055 18.7201 13.1741L19.0521 14.413C18.3281 14.6071 17.8969 15.3539 18.0909 16.0779L18.6107 18.0176C18.7047 18.3684 18.9296 18.6615 19.244 18.8431C19.4535 18.964 19.6859 19.0258 19.9216 19.0258C20.0396 19.0258 20.1585 19.0103 20.2755 18.9789L20.4264 19.542C20.6409 20.3423 20.3561 21.1543 19.7486 21.6476C19.6143 21.3562 19.3842 21.1235 19.0901 20.9863C18.7609 20.8328 18.3918 20.8167 18.0507 20.9409L16.1636 21.6278C15.8224 21.752 15.55 22.0016 15.3966 22.3307C15.2431 22.6597 15.227 23.0289 15.3513 23.3701L14.1459 23.8088C14.0218 23.4676 13.7722 23.1952 13.4431 23.0417C13.1141 22.8883 12.745 22.8723 12.4037 22.9963L10.5168 23.6832C10.1755 23.8073 9.90306 24.057 9.74963 24.3861C9.5962 24.7151 9.58007 25.0842 9.70423 25.4254L8.65724 25.8065C6.3134 26.6596 5.22182 28.2618 5.22182 30.8488C5.22182 33.1839 6.43656 35.0647 6.85588 35.6443L6.05784 37.0117C5.89191 36.9944 5.72488 36.9845 5.55786 36.9845C2.93436 36.9845 0.800049 39.1188 0.800049 41.7423C0.800049 44.3658 2.93436 46.5001 5.55786 46.5001C7.41694 46.5001 9.07185 45.4427 9.8572 43.7813H13.041C13.827 45.4412 15.4859 46.5001 17.3391 46.5001C19.1923 46.5001 20.8512 45.4412 21.6372 43.7813H24.8224C25.6084 45.4412 27.2673 46.5001 29.1205 46.5001C30.9736 46.5001 32.6325 45.4412 33.4185 43.7813H36.6024C37.3877 45.4427 39.0426 46.5001 40.9017 46.5001C43.5252 46.5001 45.6595 44.3658 45.6595 41.7423C45.6595 39.1188 43.5251 36.9845 40.9016 36.9845ZM14.4241 31.4836C14.043 31.322 13.1024 30.3619 12.399 28.7845L14.2404 28.1142C14.7155 29.7748 14.612 31.1148 14.4241 31.4836ZM20.0712 29.4283C19.6901 29.2666 18.7495 28.3065 18.0461 26.729L19.8876 26.0587C20.3627 27.7193 20.2592 29.0594 20.0712 29.4283ZM20.3652 14.0612L20.0332 12.8223L21.3462 12.4705L21.6781 13.7093L20.3652 14.0612ZM18.8098 8.25635L18.3095 6.38938C19.066 6.35078 19.5863 6.61468 19.8175 6.76529L20.1227 7.90445L18.8098 8.25635ZM25.1667 8.99993C24.9724 9.36542 23.934 10.2187 22.3012 10.7821L21.794 8.88918C23.4897 8.56058 24.8157 8.78052 25.1667 8.99993ZM23.3494 14.694C25.045 14.3654 26.3711 14.5852 26.7221 14.8047C26.5278 15.1702 25.4894 16.0236 23.8566 16.5869L23.3494 14.694ZM31.4995 11.671H33.2592L34.6805 16.9754L32.9571 25.5526C32.5637 27.5104 30.9673 28.2515 29.7198 28.2911C28.4741 28.3301 26.8323 27.6926 26.3154 25.7636L24.2089 17.9021C25.1341 17.5895 26.025 17.1506 26.7237 16.6575C28.0728 15.7052 28.2013 14.9277 28.0716 14.4432C27.9417 13.9587 27.4418 13.3497 25.7971 13.1995C24.9454 13.1217 23.9551 13.1893 22.9976 13.3812L22.6535 12.0973C23.5787 11.7847 24.4696 11.3458 25.1683 10.8527C26.5174 9.90038 26.6459 9.1229 26.5162 8.63833C26.4419 8.36138 26.2463 8.04392 25.7856 7.79452L31.7894 6.18575L32.895 10.3115H31.4995C31.1242 10.3115 30.8199 10.6159 30.8199 10.9912C30.8199 11.3666 31.1241 11.671 31.4995 11.671ZM16.8671 2.8947C17.061 2.51036 17.4297 2.27872 17.8477 2.2751C19.0962 2.2751 20.0652 2.65056 20.7105 3.01188C20.4566 3.24433 20.2366 3.51639 20.0595 3.82297C19.8121 4.25154 19.6645 4.7188 19.6188 5.19721C19.1231 5.04605 18.4931 4.96159 17.7489 5.08384L16.9447 3.97595C16.6131 3.51893 16.78 3.06761 16.8671 2.8947ZM18.3683 11.861L17.8478 9.92149C17.8478 9.92149 17.8481 9.9214 17.8486 9.92131L20.4746 9.21761L20.9944 11.1573L18.3683 11.861ZM19.4032 15.7263C19.4032 15.7263 19.4035 15.7262 19.404 15.7261L22.03 15.0224L22.5498 16.9621L19.9238 17.6659L19.4032 15.7263ZM21.7395 19.1902L21.5886 18.6271L22.9016 18.2753L23.0525 18.8384C23.3613 19.9908 23.228 21.2084 22.677 22.2667C22.2319 23.1219 21.5449 23.8131 20.7061 24.2624L20.2348 22.9676C21.5026 22.1967 22.1386 20.68 21.7395 19.1902ZM18.5152 22.2175C18.5152 22.2175 18.5153 22.2177 18.5156 22.2183L18.7479 22.8563C18.748 22.8566 18.748 22.8568 18.7481 22.857C18.7481 22.8572 18.7482 22.8573 18.7482 22.8575L19.4455 24.773L17.5584 25.4599L16.6285 22.9052L18.5152 22.2175ZM16.281 25.9248L15.0757 26.3635L14.6107 25.0861L15.816 24.6474L16.281 25.9248ZM12.868 24.2729L12.8683 24.2737L13.7982 26.8284L11.9112 27.5152L10.9814 24.9605L12.868 24.2729ZM5.55786 45.1407C3.68392 45.1407 2.15942 43.6162 2.15942 41.7423C2.15942 39.9643 3.53212 38.5018 5.27321 38.3566L3.89761 40.7149C3.52523 41.3532 3.5227 42.117 3.89081 42.7578C4.25893 43.3986 4.91986 43.7813 5.659 43.7813H8.27706C7.64659 44.6262 6.65252 45.1407 5.55786 45.1407ZM17.3391 45.1407C16.2483 45.1407 15.2529 44.6257 14.6217 43.7813H20.0566C19.4253 44.6257 18.43 45.1407 17.3391 45.1407ZM40.9016 45.1407C39.807 45.1407 38.8129 44.6262 38.1825 43.7813H40.8006C41.5396 43.7813 42.2006 43.3987 42.5687 42.7579C42.9369 42.1171 42.9343 41.3533 42.562 40.7149L41.1864 38.3567C42.9274 38.5018 44.3 39.9643 44.3 41.7423C44.3 43.6162 42.7756 45.1407 40.9016 45.1407Z" fill="#8B3828"/>
<path id="Vector_2" d="M46.5205 13.6869H39.4128C39.0375 13.6869 38.7332 13.9912 38.7332 14.3666C38.7332 14.7419 39.0375 15.0463 39.4128 15.0463H46.5205C46.8958 15.0463 47.2002 14.7419 47.2002 14.3666C47.2002 13.9912 46.8958 13.6869 46.5205 13.6869Z" fill="#8B3828"/>
</g>
</g>
<defs>
<clipPath id="clip0_122_898">
<rect width="46.4" height="46.4" fill="white" transform="translate(0.800049 0.100098)"/>
</clipPath>
</defs>
</svg>
