<svg width="50" height="51" viewBox="0 0 50 51" fill="none" xmlns="http://www.w3.org/2000/svg">
<g id="cricket_2160173 1" clip-path="url(#clip0_122_904)">
<path id="Shape" d="M47.5597 5.52936C47.2496 5.2189 46.8288 5.04446 46.3899 5.04446C45.9511 5.04446 45.5303 5.2189 45.2202 5.52936L38.0448 12.771L36.7717 12.1344C36.1574 11.8336 35.4213 11.942 34.92 12.4072V5.86002C34.92 4.94691 34.1797 4.20669 33.2666 4.20669V2.55336C33.2666 1.64025 32.5264 0.900024 31.6133 0.900024H16.7333C15.8202 0.900024 15.08 1.64025 15.08 2.55336V4.20669C14.1668 4.20669 13.4266 4.94691 13.4266 5.86002V12.8867C12.0329 11.0988 9.90653 10.0356 7.63995 9.99336C3.57493 10.0976 0.304233 13.3683 0.199951 17.4334C0.304233 21.4984 3.57493 24.7691 7.63995 24.8734C9.90653 24.8312 12.0329 23.768 13.4266 21.98V33.8262L4.82928 42.3987C4.19913 43.0416 4.19913 44.0705 4.82928 44.7134L10.1613 49.9875C10.4714 50.298 10.8922 50.4724 11.331 50.4724C11.7698 50.4724 12.1906 50.298 12.5008 49.9875L13.4266 49.0616C13.5352 49.8899 14.2446 50.5071 15.08 50.5H16.7333C17.6464 50.5 18.3866 49.7598 18.3866 48.8467V44.1182L21.6933 40.8115V48.8467C21.6933 49.7598 22.4335 50.5 23.3466 50.5H25C25.9131 50.5 26.6533 49.7598 26.6533 48.8467V35.8515L29.96 32.5448V48.8467C29.96 49.7598 30.7002 50.5 31.6133 50.5H33.2666C34.1797 50.5 34.92 49.7598 34.92 48.8467V27.5848L42.4674 20.0456C42.9698 19.5413 43.0931 18.772 42.7733 18.136L42.1367 16.863L49.3122 9.68749C49.9533 9.04263 49.9533 8.00115 49.3122 7.35629L47.5597 5.52936ZM33.2666 48.8467H31.6133V30.8915L33.2666 29.2382V48.8467ZM23.3466 23.931V5.86002H25V22.2859L23.3466 23.931ZM26.6533 6.68669H29.96V17.3342L26.6533 20.6408V6.68669ZM33.2666 5.86002V14.0358L31.6133 15.6891V5.86002H33.2666ZM31.6133 4.20669C31.0262 4.21023 30.485 4.52488 30.1914 5.03336H26.4218C26.1283 4.52488 25.5871 4.21023 25 4.20669V2.55336H31.6133V4.20669ZM16.7333 2.55336H23.3466V4.20669C22.7595 4.21023 22.2183 4.52488 21.9248 5.03336H18.1551C17.8616 4.52488 17.3204 4.21023 16.7333 4.20669V2.55336ZM16.7333 5.86002V30.5278L15.08 32.1811V5.86002H16.7333ZM3.05195 20.8558C2.78547 20.5099 2.55813 20.1357 2.37408 19.7398L9.94635 12.1675C10.3422 12.3515 10.7165 12.5789 11.0624 12.8454L3.05195 20.8558ZM12.228 14.011C12.4925 14.3551 12.7198 14.7265 12.9058 15.1187L5.32528 22.6992C4.93306 22.5132 4.56173 22.2859 4.21755 22.0214L12.228 14.011ZM8.10288 11.6467L1.85328 17.8963C1.74529 16.208 2.36896 14.5549 3.56521 13.3586C4.76145 12.1624 6.41459 11.5387 8.10288 11.6467ZM7.16875 23.22L13.4266 16.9622C13.5374 18.6534 12.9137 20.3102 11.7153 21.5087C10.5168 22.7071 8.85997 23.3308 7.16875 23.22ZM18.3866 6.68669H21.6933V25.576L18.3866 28.8827V6.68669ZM16.7333 48.8467H15.08V47.4248L16.7333 45.7715V48.8467ZM25 48.8467H23.3466V39.1582L25 37.5048V48.8467ZM11.3269 48.8467C11.2773 48.764 12.0296 49.5411 5.99488 43.5726C24.3717 25.2371 -21.1694 70.6624 36.0359 13.6142L37.6893 14.4408L40.4173 17.1688L41.2439 18.8222C10.2109 49.9627 11.4096 48.8467 11.3269 48.8467ZM41.1365 15.532L39.3757 13.7712L46.3858 6.68669L48.1466 8.51362L41.1365 15.532Z" fill="#8B3828"/>
</g>
<defs>
<clipPath id="clip0_122_904">
<rect width="49.6" height="49.6" fill="white" transform="translate(0.199951 0.900024)"/>
</clipPath>
</defs>
</svg>
