<svg width="49" height="49" viewBox="0 0 49 49" fill="none" xmlns="http://www.w3.org/2000/svg">
<g id="weight_1000008 (1)" clip-path="url(#clip0_122_859)">
<g id="Group">
<g id="Group_2">
<path id="Vector" d="M45.5525 19.4779H44.8163V17.4759C44.8163 15.1673 42.9381 13.2892 40.6295 13.2892H39.5852C39.1421 11.6441 37.6379 10.4296 35.8547 10.4296C33.7243 10.4296 31.9912 12.1626 31.9912 14.293V20.6865H17.0087V14.293C17.0087 12.1626 15.2756 10.4296 13.1453 10.4296C11.3622 10.4296 9.85803 11.6441 9.41488 13.2892H8.3705C6.06191 13.2892 4.18372 15.1673 4.18372 17.4759V19.4779H3.4475C1.82225 19.4779 0.5 20.8003 0.5 22.4254V25.7638C0.5 27.389 1.82225 28.7112 3.4475 28.7112H4.18381V30.7239C4.18381 33.0325 6.062 34.9106 8.37059 34.9106H9.41497C9.85813 36.5557 11.3623 37.7703 13.1454 37.7703C15.2758 37.7703 17.0088 36.0372 17.0088 33.9068V27.5133H29.8525C30.2409 27.5133 30.5556 27.1986 30.5556 26.8102C30.5556 26.4218 30.2409 26.1071 29.8525 26.1071H17.0087V22.0926H31.9912V33.9069C31.9912 36.0373 33.7243 37.7703 35.8547 37.7703C37.6379 37.7703 39.1421 36.5558 39.5852 34.9107H40.6295C42.9381 34.9107 44.8163 33.0326 44.8163 30.724V28.7113H45.5525C47.1777 28.7113 48.5 27.3891 48.5 25.7639V22.4255C48.5 20.8002 47.1777 19.4779 45.5525 19.4779ZM4.18381 27.3051H3.4475C2.59766 27.3051 1.90625 26.6136 1.90625 25.7639V22.4255C1.90625 21.5757 2.59766 20.8843 3.4475 20.8843H4.18381V27.3051ZM15.6025 33.9069C15.6025 35.2618 14.5002 36.3641 13.1453 36.3641C11.7903 36.3641 10.6881 35.2618 10.6881 33.9069V19.7203C10.6881 19.3319 10.3733 19.0172 9.98497 19.0172C9.59666 19.0172 9.28184 19.3319 9.28184 19.7203V33.5045H8.37059C6.83741 33.5045 5.59006 32.2572 5.59006 30.7241V17.4758C5.59006 15.9426 6.83741 14.6954 8.37059 14.6954H9.28184V16.6053C9.28184 16.9937 9.59666 17.3084 9.98497 17.3084C10.3733 17.3084 10.6881 16.9937 10.6881 16.6053V14.2929C10.6881 12.938 11.7904 11.8357 13.1453 11.8357C14.5002 11.8357 15.6025 12.938 15.6025 14.2929V33.9069ZM38.312 33.9069C38.312 35.2618 37.2097 36.3641 35.8547 36.3641C34.4998 36.3641 33.3974 35.2618 33.3974 33.9069V14.2929C33.3974 12.938 34.4998 11.8357 35.8547 11.8357C37.2097 11.8357 38.312 12.938 38.312 14.2929V33.9069ZM43.41 30.724C43.41 32.2571 42.1627 33.5044 40.6295 33.5044H39.7183V14.6954H40.6295C42.1627 14.6954 43.41 15.9427 43.41 17.4758V30.724ZM47.0938 25.7639C47.0938 26.6136 46.4023 27.305 45.5525 27.305H44.8163V20.8842H45.5525C46.4023 20.8842 47.0938 21.5756 47.0938 22.4254V25.7639Z" fill="#8B3828"/>
</g>
</g>
</g>
<defs>
<clipPath id="clip0_122_859">
<rect width="48" height="48" fill="white" transform="translate(0.5 0.0999756)"/>
</clipPath>
</defs>
</svg>
