<svg width="51" height="50" viewBox="0 0 51 50" fill="none" xmlns="http://www.w3.org/2000/svg">
<g id="chess_2500133" clip-path="url(#clip0_122_854)">
<g id="Group">
<path id="Vector" d="M44.0089 40.7296V37.8587C44.0089 37.5676 43.8373 37.3172 43.5901 37.2013C43.589 37.2008 43.5882 37.2 43.5871 37.1996C43.017 36.9362 42.4782 36.42 41.9854 35.665C41.7661 35.3289 41.3159 35.2343 40.9799 35.4536C40.6438 35.6729 40.5491 36.1231 40.7685 36.4592C40.9265 36.7014 41.0906 36.9257 41.2603 37.1322H24.6592C25.9177 35.5979 26.8884 33.0538 27.5554 29.527C28.1732 26.2605 28.3932 22.8396 28.4377 20.8825H37.486C37.5508 23.9162 38.0148 29.6366 39.4529 33.693C39.5585 33.9909 39.8386 34.177 40.1377 34.177C40.2183 34.177 40.3003 34.1636 40.3805 34.1351C40.7587 34.001 40.9566 33.5857 40.8225 33.2075C39.4357 29.2955 38.9947 23.7189 38.9375 20.7985C40.3851 20.4648 41.4682 19.1664 41.4682 17.6187C41.4682 16.777 41.1477 16.0086 40.6226 15.4291C42.2111 14.7596 43.3621 13.2624 43.5281 11.4345L44.464 1.09213C44.4823 0.888877 44.4144 0.687273 44.2767 0.536626C44.1394 0.385883 43.9446 0.300049 43.7406 0.300049H40.1804C39.8162 0.300049 39.5084 0.569565 39.4602 0.930535L38.855 5.46387C38.7919 5.93693 38.3843 6.29373 37.907 6.29373C37.3797 6.29373 36.9507 5.86466 36.9507 5.33735V1.02664C36.9507 0.625367 36.6255 0.300049 36.2241 0.300049H29.7014C29.3001 0.300049 28.9749 0.625367 28.9749 1.02664V5.33735C28.9749 5.86466 28.5458 6.29373 28.0185 6.29373C27.5412 6.29373 27.1337 5.93693 27.0705 5.46387L26.4653 0.930535C26.4171 0.569565 26.1093 0.300049 25.7451 0.300049H22.184C21.9798 0.300049 21.7852 0.385883 21.6475 0.536626C21.5099 0.687273 21.4419 0.888974 21.4604 1.09223L22.3971 11.4344C22.5622 13.2623 23.7131 14.7596 25.3021 15.4291C24.7769 16.0085 24.4564 16.7769 24.4564 17.6186C24.4564 19.1659 25.539 20.4641 26.9861 20.7981C26.9463 22.6869 26.7346 26.0472 26.1277 29.2568C25.5064 32.5416 24.6267 34.8987 23.5464 36.2097C23.0521 35.4931 22.6775 34.6475 22.4316 33.6834C22.2276 32.8834 22.1113 32.0137 22.0762 31.0436C23.371 30.7135 24.3314 29.5378 24.3314 28.1417C24.3314 26.7436 23.3682 25.5666 22.0706 25.2385C23.1052 23.9877 23.6928 22.3995 23.6928 20.7454C23.6928 16.8624 20.5338 13.7033 16.6507 13.7033C14.9135 13.7033 13.2454 14.3413 11.9534 15.5C11.6546 15.7679 11.6296 16.2273 11.8976 16.5261C12.1655 16.8248 12.6249 16.8497 12.9236 16.5819C13.9486 15.6627 15.2722 15.1565 16.6508 15.1565C19.7326 15.1565 22.2398 17.6637 22.2398 20.7454C22.2398 22.4636 21.4398 24.0915 20.0916 25.1473H13.2111C11.8628 24.0915 11.0629 22.4637 11.0629 20.7454C11.0629 20.0287 11.1967 19.3306 11.4605 18.6707C11.6095 18.2981 11.4281 17.8753 11.0555 17.7263C10.6827 17.5773 10.2601 17.7586 10.111 18.1312C9.77836 18.9635 9.6096 19.8431 9.6096 20.7454C9.6096 22.3994 10.1973 23.9876 11.2318 25.2384C9.93414 25.5665 8.97088 26.7435 8.97088 28.1417C8.97088 29.5378 9.93133 30.7136 11.2261 31.0436C11.0863 34.7305 9.70783 37.2044 7.12185 38.4002C7.12011 38.4009 7.11895 38.4021 7.1173 38.403C6.87103 38.5193 6.70024 38.7692 6.70024 39.0596V41.5644C5.29995 41.8939 4.25415 43.1527 4.25415 44.6521V49.1733C4.25415 49.5745 4.57947 49.8999 4.98074 49.8999H46.0187C46.4201 49.8999 46.7453 49.5745 46.7453 49.1733V44.1148C46.7451 42.4549 45.5705 41.0644 44.0089 40.7296ZM23.8444 11.3034L22.9793 1.75323H25.109L25.6301 5.65618C25.7893 6.84807 26.816 7.74691 28.0185 7.74691C29.3471 7.74691 30.4279 6.66604 30.4279 5.33735V1.75323H35.4974V5.33735C35.4974 6.66604 36.5783 7.74691 37.9069 7.74691C39.1093 7.74691 40.1361 6.84807 40.2952 5.65618L40.8164 1.75323H42.9453L42.0811 11.3033C41.9232 13.0429 40.4872 14.3547 38.7408 14.3547H27.1846C25.4374 14.3546 24.0015 13.043 23.8444 11.3034ZM25.9096 17.6186C25.9096 16.6203 26.7218 15.8081 27.7202 15.8081H38.2047C39.2031 15.8081 40.0152 16.6203 40.0152 17.6186C40.0152 18.6161 39.2044 19.4277 38.2072 19.4291C38.2061 19.4291 38.2052 19.4289 38.2042 19.4289C38.2022 19.4289 38.2005 19.4292 38.1986 19.4292H27.7202C26.7218 19.4293 25.9096 18.6171 25.9096 17.6186ZM20.4001 41.4797H8.15332V39.7863H21.916V40.7296C21.3463 40.8518 20.8285 41.1145 20.4001 41.4797ZM23.3692 38.5853H42.5557V40.6523H23.3692V38.5853ZM10.4241 28.1419C10.4241 27.2921 11.1155 26.6007 11.9653 26.6007H21.3368C22.1867 26.6007 22.8781 27.2921 22.8781 28.1419C22.8781 28.9917 22.1867 29.6831 21.3368 29.6831H11.9653C11.1155 29.6831 10.4241 28.9917 10.4241 28.1419ZM12.6768 31.1363H20.6264C20.725 33.596 21.3301 35.6135 22.4319 37.1518C22.4005 37.1679 22.3692 37.1846 22.3376 37.1993C22.3357 37.2001 22.3343 37.2015 22.3325 37.2024C22.0865 37.3188 21.9159 37.5686 21.9159 37.8587V38.3331H9.8331C11.5989 36.7143 12.5521 34.3052 12.6768 31.1363ZM5.70723 44.6523C5.70723 43.7042 6.47858 42.9328 7.42673 42.9328H19.3878C19.2534 43.3019 19.1798 43.7001 19.1798 44.1151V48.447H5.70723V44.6523ZM45.2919 48.4469H20.6329V44.115C20.6329 43.0069 21.5345 42.1055 22.6426 42.1055H43.2823C44.3904 42.1055 45.2919 43.0069 45.2919 44.115V48.4469Z" fill="#8B3828"/>
</g>
</g>
<defs>
<clipPath id="clip0_122_854">
<rect width="49.6" height="49.6" fill="white" transform="translate(0.699951 0.300049)"/>
</clipPath>
</defs>
</svg>
