<svg width="50" height="50" viewBox="0 0 50 50" fill="none" xmlns="http://www.w3.org/2000/svg">
<g id="ground_2984595">
<g id="_x31_112_x2C__Football_x2C__Game_x2C__Ground_x2C__Pitch">
<g id="Group">
<path id="Vector" d="M46.3125 9.6001H3.6875C3.15246 9.6001 2.71875 10.0338 2.71875 10.5688V39.6313C2.71875 40.1663 3.15246 40.6001 3.6875 40.6001H46.3125C46.8474 40.6001 47.2812 40.1663 47.2812 39.6313V10.5688C47.2812 10.0338 46.8474 9.6001 46.3125 9.6001ZM45.3438 32.7874C41.5263 32.309 38.5625 29.0452 38.5625 25.1001C38.5625 21.155 41.5263 17.8912 45.3438 17.4129V32.7874ZM25 28.0063C23.3975 28.0063 22.0938 26.7026 22.0938 25.1001C22.0938 23.4976 23.3975 22.1938 25 22.1938C26.6025 22.1938 27.9062 23.4976 27.9062 25.1001C27.9062 26.7026 26.6025 28.0063 25 28.0063ZM4.65625 17.4129C8.4738 17.8913 11.4375 21.1551 11.4375 25.1001C11.4375 29.0451 8.4738 32.3089 4.65625 32.7874V17.4129ZM4.65625 34.7393C9.54476 34.2517 13.375 30.1149 13.375 25.1001C13.375 20.0853 9.54476 15.9485 4.65625 15.4609V11.5376H24.0312V20.3538C21.823 20.8039 20.1562 22.7609 20.1562 25.1001C20.1562 27.4393 21.823 29.3964 24.0312 29.8464V38.6626H4.65625V34.7393ZM25.9688 38.6626V29.8464C28.177 29.3963 29.8438 27.4392 29.8438 25.1001C29.8438 22.761 28.177 20.8039 25.9688 20.3538V11.5376H45.3438V15.4609C40.4551 15.9485 36.625 20.0854 36.625 25.1001C36.625 30.1148 40.4551 34.2517 45.3438 34.7393V38.6626H25.9688Z" fill="#8B3828"/>
<path id="Vector_2" d="M17.25 15.4126H19.1875C19.7225 15.4126 20.1562 14.9789 20.1562 14.4438C20.1562 13.9088 19.7225 13.4751 19.1875 13.4751H17.25C16.715 13.4751 16.2812 13.9088 16.2812 14.4438C16.2812 14.9789 16.715 15.4126 17.25 15.4126Z" fill="#8B3828"/>
<path id="Vector_3" d="M15.3125 22.1938H17.25C17.785 22.1938 18.2188 21.7601 18.2188 21.2251C18.2188 20.6901 17.785 20.2563 17.25 20.2563H15.3125C14.7775 20.2563 14.3438 20.6901 14.3438 21.2251C14.3438 21.7601 14.7775 22.1938 15.3125 22.1938Z" fill="#8B3828"/>
<path id="Vector_4" d="M18.2188 28.9751C18.2188 28.4402 17.785 28.0063 17.25 28.0063H15.3125C14.7775 28.0063 14.3438 28.4402 14.3438 28.9751C14.3438 29.51 14.7775 29.9438 15.3125 29.9438H17.25C17.785 29.9438 18.2188 29.51 18.2188 28.9751Z" fill="#8B3828"/>
<path id="Vector_5" d="M19.1875 34.7876H17.25C16.715 34.7876 16.2812 35.2214 16.2812 35.7563C16.2812 36.2913 16.715 36.7251 17.25 36.7251H19.1875C19.7225 36.7251 20.1562 36.2913 20.1562 35.7563C20.1562 35.2214 19.7225 34.7876 19.1875 34.7876Z" fill="#8B3828"/>
<path id="Vector_6" d="M32.75 34.7876H30.8125C30.2775 34.7876 29.8438 35.2214 29.8438 35.7563C29.8438 36.2913 30.2775 36.7251 30.8125 36.7251H32.75C33.2849 36.7251 33.7188 36.2913 33.7188 35.7563C33.7188 35.2214 33.2849 34.7876 32.75 34.7876Z" fill="#8B3828"/>
<path id="Vector_7" d="M34.6875 28.0063H32.75C32.215 28.0063 31.7812 28.4402 31.7812 28.9751C31.7812 29.51 32.215 29.9438 32.75 29.9438H34.6875C35.2224 29.9438 35.6562 29.51 35.6562 28.9751C35.6562 28.4402 35.2224 28.0063 34.6875 28.0063Z" fill="#8B3828"/>
<path id="Vector_8" d="M34.6875 20.2563H32.75C32.215 20.2563 31.7812 20.6901 31.7812 21.2251C31.7812 21.7601 32.215 22.1938 32.75 22.1938H34.6875C35.2224 22.1938 35.6562 21.7601 35.6562 21.2251C35.6562 20.6901 35.2224 20.2563 34.6875 20.2563Z" fill="#8B3828"/>
<path id="Vector_9" d="M30.8125 15.4126H32.75C33.2849 15.4126 33.7188 14.9789 33.7188 14.4438C33.7188 13.9088 33.2849 13.4751 32.75 13.4751H30.8125C30.2775 13.4751 29.8438 13.9088 29.8438 14.4438C29.8438 14.9789 30.2775 15.4126 30.8125 15.4126Z" fill="#8B3828"/>
</g>
</g>
</g>
</svg>
