<svg width="51" height="51" viewBox="0 0 51 51" fill="none" xmlns="http://www.w3.org/2000/svg">
<g id="basketball_11621897" clip-path="url(#clip0_122_908)">
<g id="Group">
<path id="Vector" d="M46.4249 0.900024H29.8593C29.3243 0.900024 28.8906 1.33373 28.8906 1.86877C28.8906 2.40381 29.3243 2.83752 29.8593 2.83752H46.4249C47.4933 2.83752 48.3624 3.70669 48.3624 4.77502V27.5406C48.3624 28.609 47.4933 29.4781 46.4249 29.4781H40.0312V28.025C40.0312 27.49 39.5975 27.0563 39.0625 27.0563H34.5883C36.8174 24.7356 38.0937 21.6289 38.0937 18.3375C38.0937 11.3933 32.4441 5.74377 25.5 5.74377C18.5558 5.74377 12.9062 11.3933 12.9062 18.3375C12.9062 21.6289 14.1825 24.7356 16.4116 27.0563H11.9375C11.4024 27.0563 10.9687 27.49 10.9687 28.025V29.4781H4.57495C3.50661 29.4781 2.63745 28.609 2.63745 27.5406V4.77502C2.63745 3.70669 3.50661 2.83752 4.57495 2.83752H21.1406C21.6756 2.83752 22.1093 2.40381 22.1093 1.86877C22.1093 1.33373 21.6756 0.900024 21.1406 0.900024H4.57495C2.43828 0.900024 0.699951 2.63835 0.699951 4.77502V27.5406C0.699951 29.6773 2.43828 31.4156 4.57495 31.4156H10.9687V32.8688C10.9687 33.4038 11.4024 33.8375 11.9375 33.8375H13.1186L15.8125 44.613V49.5313C15.8125 50.0663 16.2462 50.5 16.7812 50.5C17.3162 50.5 17.75 50.0663 17.75 49.5313V47.8844H20.1718V49.5313C20.1718 50.0663 20.6055 50.5 21.1406 50.5C21.6756 50.5 22.1093 50.0663 22.1093 49.5313V47.8844H24.5312V49.5313C24.5312 50.0663 24.9649 50.5 25.5 50.5C26.035 50.5 26.4687 50.0663 26.4687 49.5313V47.8844H28.8906V49.5313C28.8906 50.0663 29.3243 50.5 29.8593 50.5C30.3944 50.5 30.8281 50.0663 30.8281 49.5313V47.8844H33.25V49.5313C33.25 50.0663 33.6837 50.5 34.2187 50.5C34.7537 50.5 35.1875 50.0663 35.1875 49.5313V44.613L37.8813 33.8375H39.0625C39.5975 33.8375 40.0312 33.4038 40.0312 32.8688V31.4156H46.4249C48.5616 31.4156 50.2999 29.6773 50.2999 27.5406V4.77502C50.2999 2.63835 48.5616 0.900024 46.4249 0.900024ZM33.9768 24.7959C32.7597 23.2021 32.0215 21.3065 31.8408 19.3063H36.1119C35.9294 21.3196 35.1815 23.2164 33.9768 24.7959ZM36.1117 17.3688H31.8409C32.0214 15.3704 32.7584 13.4765 33.9735 11.8837C35.1576 13.4347 35.926 15.3188 36.1117 17.3688ZM26.4687 7.72574C28.8337 7.93993 30.9782 8.92941 32.6448 10.4382C31.0445 12.4213 30.0907 14.8274 29.8967 17.3688H26.4687V7.72574ZM26.4687 19.3063H29.8968C30.0908 21.849 31.0457 24.2566 32.6476 26.2403C32.3262 26.5307 31.9855 26.8034 31.6262 27.0563H26.4687V19.3063ZM24.5312 7.72574V17.3688H21.1031C20.9092 14.8275 19.9553 12.4213 18.355 10.4382C20.0217 8.92951 22.1662 7.93993 24.5312 7.72574ZM24.5312 19.3063V27.0563H19.3737C19.0144 26.8034 18.6737 26.5307 18.3523 26.2403C19.9542 24.2566 20.9091 21.849 21.1031 19.3063H24.5312ZM17.0265 11.8837C18.2416 13.4765 18.9786 15.3705 19.1591 17.3688H14.8883C15.0739 15.3188 15.8423 13.4347 17.0265 11.8837ZM14.8879 19.3063H19.159C18.9783 21.3065 18.2401 23.202 17.023 24.7959C15.8184 23.2164 15.0705 21.3196 14.8879 19.3063ZM15.7211 36.2594L15.1156 33.8375H18.8322L19.135 36.2594H15.7211ZM16.2055 38.1969H19.3772L19.7404 41.1031H16.932L16.2055 38.1969ZM20.1718 45.9469H17.75V44.4938C17.75 44.4145 17.7403 44.3357 17.721 44.2589L17.4164 43.0406H19.9826L20.1718 44.5541V45.9469ZM24.5312 45.9469H22.1093V44.4938C22.1093 44.4536 22.1068 44.4135 22.1019 44.3736L21.9352 43.0406H24.5312V45.9469ZM24.5312 41.1031H21.6931L21.3298 38.1969H24.5312V41.1031ZM24.5312 36.2594H21.0876L20.7849 33.8375H24.5312V36.2594ZM28.898 44.3736C28.8931 44.4135 28.8906 44.4537 28.8906 44.4938V45.9469H26.4687V43.0406H29.0647L28.898 44.3736ZM29.3068 41.1031H26.4687V38.1969H29.6701L29.3068 41.1031ZM29.9123 36.2594H26.4687V33.8375H30.215L29.9123 36.2594ZM33.2789 44.2589C33.2596 44.3357 33.25 44.4145 33.25 44.4938V45.9469H30.8281V44.5541L31.0173 43.0406H33.5835L33.2789 44.2589ZM34.0679 41.1031H31.2595L31.6227 38.1969H34.7944L34.0679 41.1031ZM35.2788 36.2594H31.8649L32.1677 33.8375H35.8843L35.2788 36.2594ZM38.0937 31.9H12.9062V28.9938H38.0937V31.9Z" fill="#8B3828"/>
<path id="Vector_2" d="M25.5 2.83752C26.035 2.83752 26.4688 2.4038 26.4688 1.86877C26.4688 1.33375 26.035 0.900024 25.5 0.900024C24.965 0.900024 24.5312 1.33375 24.5312 1.86877C24.5312 2.4038 24.965 2.83752 25.5 2.83752Z" fill="#8B3828"/>
</g>
</g>
<defs>
<clipPath id="clip0_122_908">
<rect width="49.6" height="49.6" fill="white" transform="translate(0.699951 0.900024)"/>
</clipPath>
</defs>
</svg>
