<svg width="49" height="49" viewBox="0 0 49 49" fill="none" xmlns="http://www.w3.org/2000/svg">
<g id="carrom_2950864" clip-path="url(#clip0_122_865)">
<g id="Group">
<g id="Group_2">
<path id="Vector" d="M0.5 45.7352V3.16092C0.5 1.69364 1.69621 0.5 3.16667 0.5H45.8333C47.3038 0.5 48.5 1.69364 48.5 3.16092V45.7352C48.5 47.2025 47.3038 48.3961 45.8333 48.3961H30.7894C30.4496 48.3961 30.1741 48.1211 30.1741 47.7821C30.1741 47.443 30.4496 47.168 30.7894 47.168H45.8333C46.6251 47.168 47.2692 46.5252 47.2692 45.7352V3.16092C47.2692 2.37087 46.6251 1.7281 45.8333 1.7281H3.16667C2.37487 1.7281 1.73077 2.37087 1.73077 3.16092V45.7352C1.73077 46.5252 2.37487 47.168 3.16667 47.168H24.4357C24.7755 47.168 25.0511 47.443 25.0511 47.7821C25.0511 48.1211 24.7755 48.3961 24.4357 48.3961H3.16667C1.69621 48.3961 0.5 47.2025 0.5 45.7352Z" fill="#8B3828"/>
</g>
<g id="Group_3">
<path id="Vector_2" d="M27.6554 48.5C28.052 48.5 28.3734 48.1785 28.3734 47.782C28.3734 47.3855 28.052 47.0641 27.6554 47.0641C27.2589 47.0641 26.9375 47.3855 26.9375 47.782C26.9375 48.1785 27.2589 48.5 27.6554 48.5Z" fill="#8B3828"/>
</g>
<g id="Group_4">
<path id="Vector_3" d="M19.884 24.4481C19.884 21.9086 21.9545 19.8427 24.4994 19.8427C27.0443 19.8427 29.1148 21.9086 29.1148 24.4481C29.1148 26.9876 27.0444 29.0535 24.4994 29.0535C21.9544 29.0535 19.884 26.9876 19.884 24.4481ZM27.884 24.4481C27.884 22.5858 26.3657 21.0708 24.4994 21.0708C22.6332 21.0708 21.1148 22.5858 21.1148 24.4481C21.1148 26.3103 22.6332 27.8254 24.4994 27.8254C26.3657 27.8254 27.884 26.3103 27.884 24.4481Z" fill="#8B3828"/>
</g>
<g id="Group_5">
<path id="Vector_4" d="M24.4998 25.4715C25.0662 25.4715 25.5254 25.0133 25.5254 24.4481C25.5254 23.8829 25.0662 23.4247 24.4998 23.4247C23.9333 23.4247 23.4741 23.8829 23.4741 24.4481C23.4741 25.0133 23.9333 25.4715 24.4998 25.4715Z" fill="#8B3828"/>
</g>
<g id="Group_6">
<path id="Vector_5" d="M45.115 41.9485C45.115 40.2556 43.7347 38.8783 42.0381 38.8783C41.4118 38.8783 40.829 39.0664 40.3425 39.3883L33.3346 32.3956C33.0943 32.1557 32.7047 32.1557 32.4645 32.3956C32.227 32.6324 32.227 33.0272 32.4645 33.2639L39.4724 40.2566C39.1497 40.7421 38.9612 41.3236 38.9612 41.9485C38.9612 43.6415 40.3415 45.0188 42.0381 45.0188C43.7347 45.0188 45.115 43.6415 45.115 41.9485ZM40.1919 41.9485C40.1919 40.9329 41.0201 40.1064 42.0381 40.1064C43.056 40.1064 43.8842 40.9329 43.8842 41.9485C43.8842 42.9642 43.056 43.7907 42.0381 43.7907C41.0201 43.7907 40.1919 42.9643 40.1919 41.9485Z" fill="#8B3828"/>
<g id="Group_7">
<path id="Vector_6" d="M29.0906 32.8298C29.0906 30.7342 30.7992 29.0293 32.8994 29.0293C34.1921 29.0293 35.3856 29.6751 36.0921 30.7569C36.2779 31.0412 36.1971 31.4214 35.9126 31.6066C35.6279 31.7919 35.2466 31.7116 35.061 31.4276C34.5825 30.6948 33.7744 30.2574 32.8994 30.2574C31.4779 30.2574 30.3213 31.4113 30.3213 32.8298C30.3213 33.6904 30.7501 34.4904 31.4682 34.9698C31.7508 35.1583 31.8267 35.5398 31.6376 35.8216C31.4485 36.1036 31.0664 36.1791 30.7839 35.9906C29.7236 35.2827 29.0906 34.1012 29.0906 32.8298Z" fill="#8B3828"/>
</g>
</g>
<g id="Group_8">
<path id="Vector_7" d="M33.3345 16.5404L40.3424 9.54758C40.829 9.86952 41.4118 10.0576 42.038 10.0576C43.7346 10.0576 45.1149 8.68029 45.1149 6.98737C45.1149 5.29445 43.7346 3.91711 42.038 3.91711C40.3414 3.91711 38.9611 5.29445 38.9611 6.98737C38.9611 7.61229 39.1496 8.19383 39.4722 8.67927L32.4643 15.6721C31.9075 16.2272 32.7658 17.1081 33.3345 16.5404ZM42.038 5.14511C43.056 5.14511 43.8842 5.97158 43.8842 6.98727C43.8842 8.00296 43.056 8.82942 42.038 8.82942C41.0201 8.82942 40.1919 8.00296 40.1919 6.98727C40.1919 5.97158 41.0201 5.14511 42.038 5.14511Z" fill="#8B3828"/>
<g id="Group_9">
<path id="Vector_8" d="M29.0906 16.1063C29.0906 14.8348 29.7236 13.6532 30.7839 12.9454C31.0664 12.7569 31.4485 12.8325 31.6376 13.1144C31.8267 13.3962 31.7508 13.7775 31.4682 13.9662C30.7501 14.4455 30.3213 15.2456 30.3213 16.1063C30.3213 17.5247 31.4778 18.6786 32.8994 18.6786C33.7744 18.6786 34.5825 18.2413 35.061 17.5086C35.2467 17.2245 35.6278 17.1443 35.9126 17.3295C36.1971 17.5147 36.2779 17.8948 36.0921 18.1792C35.3856 19.2609 34.192 19.9067 32.8994 19.9067C30.7992 19.9067 29.0906 18.2019 29.0906 16.1063Z" fill="#8B3828"/>
</g>
</g>
<g id="Group_10">
<path id="Vector_9" d="M10.0788 41.9484C10.0788 41.3235 9.89028 40.742 9.56772 40.2565L16.5757 33.2638C16.816 33.0241 16.8162 32.6352 16.5757 32.3955C16.3354 32.1556 15.9458 32.1556 15.7056 32.3955L8.69756 39.3882C8.211 39.0663 7.62823 38.8782 7.00197 38.8782C5.30536 38.8782 3.92505 40.2555 3.92505 41.9484C3.92505 43.6413 5.30536 45.0187 7.00197 45.0187C8.69859 45.0187 10.0788 43.6413 10.0788 41.9484ZM5.15572 41.9484C5.15572 40.9327 5.98392 40.1063 7.00187 40.1063C8.01982 40.1063 8.84802 40.9327 8.84802 41.9484C8.84802 42.9641 8.01982 43.7906 7.00187 43.7906C5.98392 43.7906 5.15572 42.9642 5.15572 41.9484Z" fill="#8B3828"/>
<g id="Group_11">
<path id="Vector_10" d="M12.8479 31.0914C12.8479 30.9765 12.8802 30.8603 12.9479 30.7568C13.6545 29.675 14.8479 29.0292 16.1407 29.0292C18.2409 29.0292 19.9494 30.7341 19.9494 32.8297C19.9494 34.1011 19.3164 35.2827 18.2561 35.9905C17.9736 36.179 17.5915 36.1034 17.4025 35.8215C17.2135 35.5396 17.2894 35.1582 17.5718 34.9697C18.29 34.4904 18.7187 33.6903 18.7187 32.8297C18.7187 31.4112 17.5623 30.2573 16.1407 30.2573C15.2656 30.2573 14.4575 30.6947 13.979 31.4274C13.6571 31.9201 12.8479 31.6771 12.8479 31.0914Z" fill="#8B3828"/>
</g>
</g>
<g id="Group_12">
<path id="Vector_11" d="M16.5753 16.5404C16.8157 16.3007 16.8157 15.9118 16.5753 15.6721L9.56733 8.67927C9.89 8.19383 10.0784 7.61219 10.0784 6.98737C10.0784 5.29445 8.6981 3.91711 7.00148 3.91711C5.30487 3.91711 3.92456 5.29445 3.92456 6.98737C3.92456 8.68029 5.30487 10.0576 7.00148 10.0576C7.62774 10.0576 8.21061 9.86952 8.69707 9.54758L15.7051 16.5404C15.9455 16.7803 16.3351 16.7803 16.5753 16.5404ZM5.15543 6.98737C5.15543 5.97168 5.98364 5.14522 7.00159 5.14522C8.01953 5.14522 8.84774 5.97168 8.84774 6.98737C8.84774 8.00306 8.01953 8.82952 7.00159 8.82952C5.98364 8.82952 5.15543 8.00306 5.15543 6.98737Z" fill="#8B3828"/>
<g id="Group_13">
<path id="Vector_12" d="M12.8472 17.8445C12.8472 17.2595 13.6556 17.0147 13.9781 17.5086C14.4567 18.2413 15.2648 18.6786 16.1399 18.6786C17.5613 18.6786 18.7178 17.5247 18.7178 16.1063C18.7178 15.2456 18.2891 14.4456 17.571 13.9662C17.2886 13.7775 17.2127 13.3962 17.4016 13.1144C17.5907 12.8325 17.9728 12.7569 18.2553 12.9454C19.3156 13.6532 19.9486 14.8348 19.9486 16.1063C19.9486 18.2019 18.2401 19.9067 16.1399 19.9067C14.8472 19.9067 13.6536 19.2609 12.9471 18.1792C12.8795 18.0757 12.8472 17.9593 12.8472 17.8445Z" fill="#8B3828"/>
</g>
</g>
<path id="Vector_13" d="M36.2953 8.6874C36.2953 7.44586 35.2831 6.43591 34.0389 6.43591H14.962C13.7178 6.43591 12.7056 7.44596 12.7056 8.6874C12.7056 9.92894 13.7178 10.9389 14.962 10.9389H34.0389C35.2831 10.9389 36.2953 9.92884 36.2953 8.6874ZM35.0536 8.53612C35.1448 9.1673 34.6542 9.71089 34.0389 9.71089H34.0367C33.4751 9.71089 32.9962 9.24535 32.9962 8.68114C32.9962 8.12145 33.452 7.68114 34.0026 7.66402C34.5178 7.66402 34.9801 8.0273 35.0536 8.53612ZM31.8582 9.71078H17.3029C17.5938 9.06484 17.5793 8.29817 17.2666 7.66391H31.8533C31.5618 8.30637 31.5632 9.06966 31.8582 9.71078ZM13.9387 8.61725C13.9752 8.07396 14.4525 7.66402 14.9982 7.66402C15.5502 7.70996 15.9186 8.18627 15.9186 8.72668C15.9186 9.25161 15.4995 9.71078 14.9619 9.71078C14.3733 9.71078 13.8987 9.21314 13.9387 8.61725Z" fill="#8B3828"/>
<path id="Vector_14" d="M36.2953 40.2088C36.2953 38.9672 35.2831 37.9573 34.0389 37.9573H14.962C13.7178 37.9573 12.7056 38.9673 12.7056 40.2088C12.7056 41.4503 13.7178 42.4602 14.962 42.4602H34.0389C35.2831 42.4602 36.2953 41.4503 36.2953 40.2088ZM35.0536 40.0575C35.1448 40.6887 34.6542 41.2322 34.0389 41.2322H34.0367C33.4751 41.2322 32.9962 40.7667 32.9962 40.2025C32.9962 39.6428 33.452 39.2025 34.0027 39.1854C34.5179 39.1854 34.9801 39.5487 35.0536 40.0575ZM31.8582 41.2321H17.3029C17.5938 40.5862 17.5793 39.8195 17.2666 39.1853H31.8533C31.5618 39.8277 31.5632 40.5911 31.8582 41.2321ZM13.9387 40.1386C13.9752 39.5953 14.4525 39.1854 14.9982 39.1854C15.5502 39.2313 15.9186 39.7076 15.9186 40.248C15.9186 40.773 15.4995 41.2321 14.9619 41.2321C14.3733 41.2321 13.8987 40.7345 13.9387 40.1386Z" fill="#8B3828"/>
<path id="Vector_15" d="M40.2947 36.2174C41.5389 36.2174 42.5512 35.2073 42.5512 33.9659V14.9303C42.5512 13.6888 41.5389 12.6788 40.2947 12.6788C39.0505 12.6788 38.0383 13.6889 38.0383 14.9303V33.9659C38.0383 35.2074 39.0505 36.2174 40.2947 36.2174ZM40.4464 34.9784C39.8139 35.0694 39.2691 34.58 39.2691 33.9659V33.9638C39.2691 33.4033 39.7357 32.9255 40.3011 32.9255C40.862 32.9255 41.3033 33.3803 41.3204 33.9297C41.3204 34.4438 40.9563 34.9051 40.4464 34.9784ZM39.2691 31.7899V17.2661C39.9164 17.5563 40.6848 17.5419 41.3204 17.2299V31.785C40.6766 31.4941 39.9116 31.4956 39.2691 31.7899ZM40.3651 13.9092C40.9096 13.9456 41.3204 14.4219 41.3204 14.9664C41.2743 15.5172 40.7969 15.8849 40.2554 15.8849C39.7293 15.8849 39.2691 15.4666 39.2691 14.9303C39.2691 14.3428 39.7679 13.8693 40.3651 13.9092Z" fill="#8B3828"/>
<path id="Vector_16" d="M8.7049 36.2175C9.9491 36.2175 10.9613 35.2075 10.9613 33.966V14.9304C10.9613 13.6889 9.9491 12.679 8.7049 12.679C7.46069 12.679 6.44849 13.689 6.44849 14.9304V33.966C6.44849 35.2075 7.46069 36.2175 8.7049 36.2175ZM8.85659 34.9784C8.22408 35.0694 7.67926 34.5799 7.67926 33.9659V33.9638C7.67926 33.4034 8.14582 32.9255 8.71126 32.9255C9.27218 32.9255 9.71341 33.3803 9.73054 33.9297C9.73054 34.4439 9.36643 34.9051 8.85659 34.9784ZM7.67926 31.7899V17.2661C8.32654 17.5563 9.09495 17.5419 9.73054 17.2299V31.785C9.08674 31.4941 8.32172 31.4956 7.67926 31.7899ZM8.77526 13.9093C9.31977 13.9457 9.73054 14.422 9.73054 14.9665C9.68449 15.5173 9.20705 15.885 8.66551 15.885C8.13946 15.885 7.67926 15.4667 7.67926 14.9304C7.67926 14.3429 8.17802 13.8693 8.77526 13.9093Z" fill="#8B3828"/>
</g>
</g>
<defs>
<clipPath id="clip0_122_865">
<rect width="48" height="48" fill="white" transform="translate(0.5 0.5)"/>
</clipPath>
</defs>
</svg>
